
<svg xmlns="http://www.w3.org/2000/svg" xmlns:xlink="http://www.w3.org/1999/xlink" width="826.539" height="601.165" viewBox="0 0 826.539 601.165">
  <defs>
    <clipPath id="clip-path">
      <rect id="Rectangle_1" data-name="Rectangle 1" width="826.539" height="601.165" transform="translate(-62)" fill="none"/>
    </clipPath>
  </defs>
  <g id="Scroll_Group_1" data-name="Scroll Group 1" transform="translate(62)" clip-path="url(#clip-path)">
    <g id="Code" transform="translate(316.237 183.012)">
      <path id="Path_3" data-name="Path 3" d="M601.829,259.635h-22.26a2.6,2.6,0,0,0-2.6,2.6V284.5a2.593,2.593,0,0,0,2.6,2.59h22.26a2.6,2.6,0,0,0,2.6-2.59V262.23A2.608,2.608,0,0,0,601.829,259.635Z" transform="translate(-576.969 -259.63)" fill="#fff"/>
      <path id="Path_4" data-name="Path 4" d="M601.829,297.585h-22.26a2.6,2.6,0,0,0-2.6,2.6v22.27a2.592,2.592,0,0,0,2.6,2.59h22.26a2.6,2.6,0,0,0,2.6-2.59v-22.27a2.608,2.608,0,0,0-2.6-2.6Z" transform="translate(-576.969 -259.63)" fill="#e6e6e6"/>
      <path id="Path_5" data-name="Path 5" d="M601.829,335.535h-22.26a2.6,2.6,0,0,0-2.6,2.6V360.4a2.6,2.6,0,0,0,2.6,2.6h22.26a2.6,2.6,0,0,0,2.6-2.6V338.14a2.608,2.608,0,0,0-2.6-2.605Z" transform="translate(-576.969 -259.63)" fill="#e6e6e6"/>
      <path id="Path_6" data-name="Path 6" d="M604.389,375.625a2.617,2.617,0,0,0-2.56-2.14h-22.26a2.6,2.6,0,0,0-2.6,2.6v22.26a2.6,2.6,0,0,0,2.6,2.6h22.26a2.6,2.6,0,0,0,2.6-2.6v-22.26a2.316,2.316,0,0,0-.04-.46Z" transform="translate(-576.969 -259.63)" fill="#e6e6e6"/>
      <path id="Path_7" data-name="Path 7" d="M602.839,411.635a2.634,2.634,0,0,0-1.01-.2h-22.26a2.595,2.595,0,0,0-2.6,2.6V436.3a2.588,2.588,0,0,0,2.6,2.6h22.26a2.6,2.6,0,0,0,2.6-2.6v-22.26a2.616,2.616,0,0,0-1.59-2.4Z" transform="translate(-576.969 -259.63)" fill="#e6e6e6"/>
      <path id="Path_8" data-name="Path 8" d="M648.589,259.635h-22.26a2.6,2.6,0,0,0-2.6,2.6V284.5a2.593,2.593,0,0,0,2.6,2.59h22.26a2.6,2.6,0,0,0,2.6-2.59V262.23a2.608,2.608,0,0,0-2.6-2.6Z" transform="translate(-576.969 -259.63)" fill="#e6e6e6"/>
      <path id="Path_9" data-name="Path 9" d="M648.589,297.585h-22.26a2.6,2.6,0,0,0-2.6,2.6v22.27a2.592,2.592,0,0,0,2.6,2.59h22.26a2.6,2.6,0,0,0,2.6-2.59v-22.27a2.607,2.607,0,0,0-2.6-2.6Z" transform="translate(-576.969 -259.63)" fill="#2978b5"/>
      <path id="Path_10" data-name="Path 10" d="M648.589,335.535h-22.26a2.6,2.6,0,0,0-2.6,2.6V360.4a2.595,2.595,0,0,0,2.6,2.6h22.26a2.6,2.6,0,0,0,2.6-2.6V338.14a2.608,2.608,0,0,0-2.6-2.6Z" transform="translate(-576.969 -259.63)" fill="#2978b5"/>
      <path id="Path_11" data-name="Path 11" d="M648.589,373.485h-22.26a2.593,2.593,0,0,0-2.46,1.78,2.476,2.476,0,0,0-.14.82v22.26a2.595,2.595,0,0,0,2.6,2.6h22.26a2.6,2.6,0,0,0,2.6-2.6v-22.26A2.608,2.608,0,0,0,648.589,373.485Z" transform="translate(-576.969 -259.63)" fill="#2978b5"/>
      <path id="Path_12" data-name="Path 12" d="M648.589,411.435h-22.26a2.595,2.595,0,0,0-2.6,2.6V436.3a2.6,2.6,0,0,0,2.6,2.6h22.26a2.6,2.6,0,0,0,2.6-2.6V414.04a2.6,2.6,0,0,0-2.6-2.6Z" transform="translate(-576.969 -259.63)" fill="#e6e6e6"/>
      <path id="Path_13" data-name="Path 13" d="M695.349,259.635h-22.26a2.6,2.6,0,0,0-2.6,2.6V284.5a2.593,2.593,0,0,0,2.6,2.59h22.26a2.6,2.6,0,0,0,2.6-2.59V262.23a2.608,2.608,0,0,0-2.6-2.6Z" transform="translate(-576.969 -259.63)" fill="#2978b5"/>
      <path id="Path_14" data-name="Path 14" d="M695.349,297.585h-22.26a2.6,2.6,0,0,0-2.6,2.6v22.27a2.592,2.592,0,0,0,2.6,2.59h22.26a2.6,2.6,0,0,0,2.6-2.59v-22.27a2.607,2.607,0,0,0-2.6-2.6Z" transform="translate(-576.969 -259.63)" fill="#2978b5"/>
      <path id="Path_15" data-name="Path 15" d="M695.349,335.535h-22.26a2.6,2.6,0,0,0-2.6,2.6V360.4a2.595,2.595,0,0,0,2.6,2.6h22.26a2.6,2.6,0,0,0,2.6-2.6V338.14a2.608,2.608,0,0,0-2.6-2.605Z" transform="translate(-576.969 -259.63)" fill="#e6e6e6"/>
      <path id="Path_16" data-name="Path 16" d="M695.349,373.485h-22.26a2.6,2.6,0,0,0-2.6,2.6v22.26a2.595,2.595,0,0,0,2.6,2.6h22.26a2.6,2.6,0,0,0,2.6-2.6v-22.26a2.608,2.608,0,0,0-2.6-2.6Z" transform="translate(-576.969 -259.63)" fill="#2978b5"/>
      <path id="Path_17" data-name="Path 17" d="M695.349,411.435h-22.26a2.595,2.595,0,0,0-2.6,2.6V436.3a2.6,2.6,0,0,0,2.6,2.6h22.26a2.6,2.6,0,0,0,2.6-2.6V414.04a2.6,2.6,0,0,0-2.6-2.6Z" transform="translate(-576.969 -259.63)" fill="#2978b5"/>
      <path id="Path_18" data-name="Path 18" d="M742.109,259.635h-22.26a2.6,2.6,0,0,0-2.6,2.6V284.5a2.593,2.593,0,0,0,2.6,2.59h22.26a2.6,2.6,0,0,0,2.6-2.59V262.23a2.608,2.608,0,0,0-2.6-2.6Z" transform="translate(-576.969 -259.63)" fill="#2978b5"/>
      <path id="Path_19" data-name="Path 19" d="M742.109,297.585h-22.26a2.6,2.6,0,0,0-2.6,2.6v22.27a2.592,2.592,0,0,0,2.6,2.59h22.26a2.6,2.6,0,0,0,2.6-2.59v-22.27a2.608,2.608,0,0,0-2.6-2.6Z" transform="translate(-576.969 -259.63)" fill="#fff"/>
      <path id="Path_20" data-name="Path 20" d="M742.109,335.535h-22.26a2.6,2.6,0,0,0-2.6,2.6V360.4a2.6,2.6,0,0,0,2.6,2.6h22.26a2.6,2.6,0,0,0,2.6-2.6V338.14a2.608,2.608,0,0,0-2.6-2.605Z" transform="translate(-576.969 -259.63)" fill="#fff"/>
      <path id="Path_21" data-name="Path 21" d="M742.109,373.485h-22.26a2.6,2.6,0,0,0-2.6,2.6v22.26a2.6,2.6,0,0,0,2.6,2.6h22.26a2.6,2.6,0,0,0,2.6-2.6v-22.26A2.608,2.608,0,0,0,742.109,373.485Z" transform="translate(-576.969 -259.63)" fill="#e6e6e6"/>
      <path id="Path_22" data-name="Path 22" d="M742.109,411.435h-22.26a2.595,2.595,0,0,0-2.6,2.6V436.3a2.6,2.6,0,0,0,2.6,2.6h22.26a2.6,2.6,0,0,0,2.6-2.6V414.04a2.6,2.6,0,0,0-2.6-2.6Z" transform="translate(-576.969 -259.63)" fill="#2978b5"/>
      <path id="Path_23" data-name="Path 23" d="M788.869,259.635H766.6a2.6,2.6,0,0,0-2.59,2.6V284.5a2.59,2.59,0,0,0,2.59,2.59h22.27a2.6,2.6,0,0,0,2.6-2.59V262.23a2.608,2.608,0,0,0-2.6-2.6Z" transform="translate(-576.969 -259.63)" fill="#fff"/>
      <path id="Path_24" data-name="Path 24" d="M788.869,297.585H766.6a2.6,2.6,0,0,0-2.59,2.6v22.27a2.59,2.59,0,0,0,2.59,2.59h22.271a2.6,2.6,0,0,0,2.6-2.59v-22.27A2.608,2.608,0,0,0,788.869,297.585Z" transform="translate(-576.969 -259.63)" fill="#fff"/>
      <path id="Path_25" data-name="Path 25" d="M788.869,335.535H766.6a2.6,2.6,0,0,0-2.59,2.6V360.4a2.593,2.593,0,0,0,2.59,2.6h22.27a2.6,2.6,0,0,0,2.6-2.6V338.14a2.608,2.608,0,0,0-2.6-2.605Z" transform="translate(-576.969 -259.63)" fill="#fff"/>
      <path id="Path_26" data-name="Path 26" d="M788.869,373.485H766.6a2.6,2.6,0,0,0-2.59,2.6v22.26a2.593,2.593,0,0,0,2.59,2.6h22.27a2.6,2.6,0,0,0,2.6-2.6v-22.26a2.608,2.608,0,0,0-2.6-2.6Z" transform="translate(-576.969 -259.63)" fill="#2978b5"/>
      <path id="Path_27" data-name="Path 27" d="M788.869,411.435H766.6a2.593,2.593,0,0,0-2.59,2.6V436.3a2.593,2.593,0,0,0,2.59,2.6h22.27a2.6,2.6,0,0,0,2.6-2.6V414.04a2.6,2.6,0,0,0-2.6-2.6Z" transform="translate(-576.969 -259.63)" fill="#e6e6e6"/>
      <path id="Path_28" data-name="Path 28" d="M835.629,259.635h-22.27a2.6,2.6,0,0,0-2.59,2.6V284.5a2.59,2.59,0,0,0,2.59,2.59H835.63a2.6,2.6,0,0,0,2.6-2.59V262.23a2.608,2.608,0,0,0-2.6-2.6Z" transform="translate(-576.969 -259.63)" fill="#fff"/>
      <path id="Path_29" data-name="Path 29" d="M835.629,297.585h-22.27a2.6,2.6,0,0,0-2.59,2.6v22.27a2.59,2.59,0,0,0,2.589,2.59h22.271a2.6,2.6,0,0,0,2.6-2.59v-22.27a2.608,2.608,0,0,0-2.6-2.6Z" transform="translate(-576.969 -259.63)" fill="#fff"/>
      <path id="Path_30" data-name="Path 30" d="M835.629,335.535h-22.27a2.6,2.6,0,0,0-2.59,2.6V360.4a2.593,2.593,0,0,0,2.59,2.6h22.27a2.6,2.6,0,0,0,2.6-2.6V338.14a2.608,2.608,0,0,0-2.6-2.6Z" transform="translate(-576.969 -259.63)" fill="#2978b5"/>
      <path id="Path_31" data-name="Path 31" d="M835.629,373.485h-22.27a2.6,2.6,0,0,0-2.59,2.6v22.26a2.593,2.593,0,0,0,2.59,2.6h22.27a2.6,2.6,0,0,0,2.6-2.6v-22.26A2.608,2.608,0,0,0,835.629,373.485Z" transform="translate(-576.969 -259.63)" fill="#e6e6e6"/>
      <path id="Path_32" data-name="Path 32" d="M835.629,411.435h-22.27a2.593,2.593,0,0,0-2.59,2.6V436.3a2.593,2.593,0,0,0,2.59,2.6h22.27a2.6,2.6,0,0,0,2.6-2.6V414.04a2.6,2.6,0,0,0-2.6-2.6Z" transform="translate(-576.969 -259.63)" fill="#fff"/>
      <path id="Path_33" data-name="Path 33" d="M882.389,259.635h-22.27a2.6,2.6,0,0,0-2.59,2.6V284.5a2.59,2.59,0,0,0,2.59,2.59H882.39a2.6,2.6,0,0,0,2.6-2.59V262.23A2.608,2.608,0,0,0,882.389,259.635Z" transform="translate(-576.969 -259.63)" fill="#2978b5"/>
      <path id="Path_34" data-name="Path 34" d="M882.389,297.585h-22.27a2.6,2.6,0,0,0-2.59,2.6v22.27a2.59,2.59,0,0,0,2.589,2.59h22.271a2.6,2.6,0,0,0,2.6-2.59v-22.27a2.608,2.608,0,0,0-2.6-2.6Z" transform="translate(-576.969 -259.63)" fill="#2978b5"/>
      <path id="Path_35" data-name="Path 35" d="M882.389,335.535h-22.27a2.6,2.6,0,0,0-2.59,2.6V360.4a2.592,2.592,0,0,0,2.59,2.6h22.27a2.6,2.6,0,0,0,2.6-2.6V338.14a2.608,2.608,0,0,0-2.6-2.6Z" transform="translate(-576.969 -259.63)" fill="#e6e6e6"/>
      <path id="Path_36" data-name="Path 36" d="M882.389,373.485h-22.27a2.6,2.6,0,0,0-2.59,2.6v22.26a2.593,2.593,0,0,0,2.59,2.6h22.27a2.6,2.6,0,0,0,2.6-2.6v-22.26A2.608,2.608,0,0,0,882.389,373.485Z" transform="translate(-576.969 -259.63)" fill="#fff"/>
      <path id="Path_37" data-name="Path 37" d="M882.389,411.435h-22.27a2.593,2.593,0,0,0-2.59,2.6V436.3a2.593,2.593,0,0,0,2.59,2.6h22.27a2.6,2.6,0,0,0,2.6-2.6V414.04a2.6,2.6,0,0,0-2.6-2.6Z" transform="translate(-576.969 -259.63)" fill="#2978b5"/>
      <path id="Path_38" data-name="Path 38" d="M929.149,259.635h-22.27a2.6,2.6,0,0,0-2.59,2.6V284.5a2.591,2.591,0,0,0,2.59,2.59h22.27a2.6,2.6,0,0,0,2.6-2.59V262.23A2.608,2.608,0,0,0,929.149,259.635Z" transform="translate(-576.969 -259.63)" fill="#2978b5"/>
      <path id="Path_39" data-name="Path 39" d="M929.149,297.585h-22.27a2.6,2.6,0,0,0-2.59,2.6v22.27a2.59,2.59,0,0,0,2.589,2.59h22.271a2.6,2.6,0,0,0,2.6-2.59v-22.27a2.608,2.608,0,0,0-2.6-2.6Z" transform="translate(-576.969 -259.63)" fill="#2978b5"/>
      <path id="Path_40" data-name="Path 40" d="M929.149,335.535h-22.27a2.6,2.6,0,0,0-2.59,2.6V360.4a2.592,2.592,0,0,0,2.59,2.6h22.27a2.6,2.6,0,0,0,2.6-2.6V338.14a2.608,2.608,0,0,0-2.6-2.6Z" transform="translate(-576.969 -259.63)" fill="#e6e6e6"/>
      <path id="Path_41" data-name="Path 41" d="M929.149,373.485h-22.27a2.6,2.6,0,0,0-2.59,2.6v22.26a2.593,2.593,0,0,0,2.59,2.6h22.27a2.6,2.6,0,0,0,2.6-2.6v-22.26A2.608,2.608,0,0,0,929.149,373.485Z" transform="translate(-576.969 -259.63)" fill="#2978b5"/>
      <path id="Path_42" data-name="Path 42" d="M929.149,411.435h-22.27a2.593,2.593,0,0,0-2.59,2.6V436.3a2.593,2.593,0,0,0,2.59,2.6h22.27a2.6,2.6,0,0,0,2.6-2.6V414.04a2.6,2.6,0,0,0-2.6-2.6Z" transform="translate(-576.969 -259.63)" fill="#2978b5"/>
      <path id="Path_43" data-name="Path 43" d="M975.909,259.635h-22.27a2.6,2.6,0,0,0-2.59,2.6V284.5a2.59,2.59,0,0,0,2.59,2.59h22.27a2.6,2.6,0,0,0,2.6-2.59V262.23A2.608,2.608,0,0,0,975.909,259.635Z" transform="translate(-576.969 -259.63)" fill="#e6e6e6"/>
      <path id="Path_44" data-name="Path 44" d="M975.909,297.585h-22.27a2.6,2.6,0,0,0-2.59,2.6v22.27a2.59,2.59,0,0,0,2.59,2.59H975.91a2.6,2.6,0,0,0,2.6-2.59v-22.27a2.608,2.608,0,0,0-2.6-2.6Z" transform="translate(-576.969 -259.63)" fill="#2978b5"/>
      <path id="Path_45" data-name="Path 45" d="M975.909,335.535h-22.27a2.6,2.6,0,0,0-2.59,2.6V360.4a2.592,2.592,0,0,0,2.59,2.6h22.27a2.6,2.6,0,0,0,2.6-2.6V338.14a2.608,2.608,0,0,0-2.6-2.6Z" transform="translate(-576.969 -259.63)" fill="#2978b5"/>
      <path id="Path_46" data-name="Path 46" d="M975.909,373.485h-22.27a2.6,2.6,0,0,0-2.59,2.6v22.26a2.593,2.593,0,0,0,2.59,2.6h22.27a2.6,2.6,0,0,0,2.6-2.6v-22.26A2.608,2.608,0,0,0,975.909,373.485Z" transform="translate(-576.969 -259.63)" fill="#2978b5"/>
      <path id="Path_47" data-name="Path 47" d="M975.909,411.435h-22.27a2.593,2.593,0,0,0-2.59,2.6V436.3a2.593,2.593,0,0,0,2.59,2.6h22.27a2.6,2.6,0,0,0,2.6-2.6V414.04a2.6,2.6,0,0,0-2.6-2.6Z" transform="translate(-576.969 -259.63)" fill="#e6e6e6"/>
      <path id="Path_48" data-name="Path 48" d="M1022.67,259.635H1000.4a2.6,2.6,0,0,0-2.59,2.6V284.5a2.591,2.591,0,0,0,2.589,2.59h22.271a2.6,2.6,0,0,0,2.6-2.59V262.23a2.608,2.608,0,0,0-2.6-2.6Z" transform="translate(-576.969 -259.63)" fill="#e6e6e6"/>
      <path id="Path_49" data-name="Path 49" d="M1022.67,297.585H1000.4a2.6,2.6,0,0,0-2.59,2.6v22.27a2.59,2.59,0,0,0,2.59,2.59h22.271a2.6,2.6,0,0,0,2.6-2.59v-22.27a2.608,2.608,0,0,0-2.6-2.6Z" transform="translate(-576.969 -259.63)" fill="#e6e6e6"/>
      <path id="Path_50" data-name="Path 50" d="M1022.67,335.535H1000.4a2.6,2.6,0,0,0-2.59,2.6V360.4a2.592,2.592,0,0,0,2.59,2.6h22.27a2.6,2.6,0,0,0,2.6-2.6V338.14a2.608,2.608,0,0,0-2.6-2.6Z" transform="translate(-576.969 -259.63)" fill="#2978b5"/>
      <path id="Path_51" data-name="Path 51" d="M1022.67,373.485H1000.4a2.6,2.6,0,0,0-2.59,2.6v22.26a2.593,2.593,0,0,0,2.59,2.6h22.27a2.6,2.6,0,0,0,2.6-2.6v-22.26a2.608,2.608,0,0,0-2.6-2.6Z" transform="translate(-576.969 -259.63)" fill="#e6e6e6"/>
      <path id="Path_52" data-name="Path 52" d="M1022.67,411.435H1000.4a2.593,2.593,0,0,0-2.59,2.6V436.3a2.593,2.593,0,0,0,2.59,2.6h22.27a2.6,2.6,0,0,0,2.6-2.6V414.04a2.6,2.6,0,0,0-2.6-2.6Z" transform="translate(-576.969 -259.63)" fill="#e6e6e6"/>
    </g>
    <path id="Path_53" data-name="Path 53" d="M336.1,660.051h-.62l.53-.07Z" transform="translate(-37 0)" fill="#2f2e41"/>
    <path id="Path_54" data-name="Path 54" d="M634.279,424.7l-.22,1.16-2.47,13.04-17.07,90.2-1.01,5.31-2.12,11.23-2.9,15.32-6.43,33.95-1.84,9.73-.69,3.65-.24,1.28-1.91,10.07-.58,3.04-4.66,34.53-4.07,30.09,13.62,13.62-8.12,8.12-5.33,30.53.01.07H370.719q-13.2-8.55-26.02-17.63l1.79-13.4s6.16-23.93,3.57-26.79-8.24-7.97-8.24-7.97l7.13-16.64.99-2.31-1.66-34.43-.04-.83-.55-11.35-.07-1.46-.11-2.19-2.11-43.68-.04-.72-.64-13.24-.6-12.59-.26-5.31-2.57-53.13-1.74-36.08-1.52-31.41,6.11-2.07,65.35-22.21,27.07-35.2,56.34.42,27.58.21,46.02,42.68,10.47,5,.08.04,7.51,3.59,19.04,9.09,20.13,9.62,10.33,4.93Z" transform="translate(-258.784 -96.461)" fill="#cacaca"/>
    <g id="left-arm" transform="translate(10.278 316.426) rotate(7)">
      <path id="Path_55" data-name="Path 55" d="M443.84,637.136a30.286,30.286,0,0,1-40.664-22.43L296.617,599.588l37.043-41.9,95.511,20.78a30.45,30.45,0,0,1,14.669,58.67Z" transform="translate(-264.014 -404.877)" fill="#ffb6b6"/>
      <g id="Path_56" data-name="Path 56">
        <path id="Path_56-2" data-name="Path 56" d="M396.329,554.379a13.611,13.611,0,0,0-7.89-4.683l-43.72-8.74-4.49-.894a18.907,18.907,0,0,1-12.53-8.721,17.919,17.919,0,0,1-2.45-7.6,17.519,17.519,0,0,1,.89-7.192l15.15-43.895,9.83-28.481a38.818,38.818,0,0,0,2.09-10.625,40.6,40.6,0,0,0-9.07-27.779c-11.548-14.275-31.452-19.6-49.01-13.116-.25.087-.51.183-.76.279a41.536,41.536,0,0,0-25.31,27.318l-10.68,37.356-22.03,77.01a53.767,53.767,0,0,0,7.791,45.753A58.144,58.144,0,0,0,285.309,604.5l62.97,7.1,29.14,3.289a13.451,13.451,0,0,0,14.84-10.317,4.558,4.558,0,0,0,.11-.529l.7-4.154L399,564.908l.06-.356A12.592,12.592,0,0,0,396.329,554.379Z" transform="translate(-234.283 -389.922)" fill="#cacaca"/>
      </g>
    </g>
    <g id="rigth-arm" transform="translate(241.747 314.654) rotate(3)">
      <path id="Path_57" data-name="Path 57" d="M511.714,638.3a30.286,30.286,0,0,0,37.094-27.94L652.17,580.368l-42.581-36.259-91.626,34.042a30.45,30.45,0,0,0-6.249,60.152Z" transform="translate(-487.956 -364.384)" fill="#ffb6b6"/>
      <path id="Path_58" data-name="Path 58" d="M703.489,513.275l-49.16-113.14a42.82,42.82,0,0,0-20.27-21.35,43.354,43.354,0,0,0-8.78-3.2c-.47-.12-.94-.23-1.41-.32a42.132,42.132,0,0,0-19.48.36,42.813,42.813,0,0,0-27.34,21.73,1,1,0,0,0-.08.14,43.1,43.1,0,0,0-.37,38.85l.61,1.22,34.74,69.77a18.9,18.9,0,0,1-10.5,26.19l-2.44.88-43.88,15.85a13.5,13.5,0,0,0-8.33,16.79l.11.35,12.3,39.36c.06.18.12.36.19.54a7.058,7.058,0,0,0,.4.99,13.482,13.482,0,0,0,15.81,7.53l23.68-6.25,4.83-1.28,61.15-16.15a57.76,57.76,0,0,0,38.22-78.86Z" transform="translate(-475.424 -374.296)" fill="#cacaca"/>
    </g>
    <path id="Path_60" data-name="Path 60" d="M842.759,711.025q-5.745,6.015-11.8,11.74h-96.21v-11.74Z" transform="translate(-211.731 -79.586)" fill="#fff"/>
    <g id="Component_1_1" data-name="Component 1 – 1" transform="translate(-19.002 272.647)">
      <path id="Path_59" data-name="Path 59" d="M219.629,608.285a520.854,520.854,0,0,0,47.182,48.92H732.932a16.709,16.709,0,0,1,16.934,16.43l.67,114.53a368.473,368.473,0,0,0,79.9-48.53q10.148-8.085,19.667-16.87,6.234-5.73,12.169-11.74a355.129,355.129,0,0,0,70.975-102.74Z" transform="translate(-219.629 -319.983)" fill="#3f3d56"/>
      <path id="Path_61" data-name="Path 61" d="M633.379,335.535a5.538,5.538,0,0,0-4.87-2.9H300.669a5.554,5.554,0,0,0-5.54,5.55v196.22h338.93V338.185a5.387,5.387,0,0,0-.68-2.65Z" transform="translate(-219.044 -332.635)" fill="#3f3d56"/>
      <path id="Path_62" data-name="Path 62" d="M294.832,529.092v24.214a7.644,7.644,0,0,0,7.644,7.644h125.1v47.787h-1.662a.993.993,0,0,0-.993.993v3.324a.993.993,0,0,0,.993.993H503.57a.993.993,0,0,0,.993-.993V609.73a.993.993,0,0,0-.993-.993h-1.662V560.95H627a7.644,7.644,0,0,0,7.644-7.644V529.092Z" transform="translate(-219.629 -327.322)" fill="#3f3d56"/>
      <circle id="Ellipse_1" data-name="Ellipse 1" cx="31.306" cy="31.306" r="31.306" transform="translate(216.917 61.38)" fill="#2978b5"/>
    </g>
    <path id="Path_69" data-name="Path 69" d="M396.9,287.165l-7.7-32.01a6.532,6.532,0,0,0-5.29-4.92l10.51,43.72a6.511,6.511,0,0,0,2.48-6.79Z" transform="translate(-211.731 -79.586)" fill="#fff"/>
    <g id="head" transform="translate(129.164 85.148)">
      <circle id="ab6171fa-7d69-4734-b81c-8dff60f9761b" cx="68.322" cy="68.322" r="68.322" transform="translate(24.662 34.359)" fill="#ffb6b6"/>
      <path id="bf427902-b9bf-4946-b5d7-5c1c7e04535e" d="M517.377,206.226s17.869-34.161-21.444-37.266c0,0-33.515-30.4-67.676-5.558,0,0-18.633,0-28.822,21.086,0,0-14.655-5.558-17.875,9.317,0,0-10.724,31.055,0,59.005s14.285,31.055,14.285,31.055-17.621-58.6,25.27-61.7,90.887-29.909,94.461,4.251,8.953,42.578,8.953,42.578S558.479,220.2,517.377,206.226Z" transform="translate(-364.561 -153.638)" fill="#674840"/>
      <path id="Path_63" data-name="Path 63" d="M540.4,252.585h-5c0-37.8-37.41-62.57-75.15-62.59a82.377,82.377,0,0,0-16.35,1.59c-6.06,1.21-12.35,2.66-18.53,4.55-24.37,7.47-46.97,21.91-46.97,56.45a78.591,78.591,0,0,0,2.54,19.88l-4.84,1.26a83.879,83.879,0,0,1-2.7-21.14c0-30.18,12.39-50.91,33.79-63.27,11.25-6.5,24.98-10.69,40.71-12.73a97.131,97.131,0,0,1,19.75-.6C511.049,179.1,540.4,212.385,540.4,252.585Z" transform="translate(-364.561 -153.638)" fill="#2978b5"/>
      <path id="Path_64" data-name="Path 64" d="M548.729,255.355l-1.97-14.56a15.914,15.914,0,0,0-18.25-13.56l-3.13.43a6.581,6.581,0,0,0-5.64,7.4l4.55,33.54a6.577,6.577,0,0,0,5.3,5.57,6.154,6.154,0,0,0,1.22.12,6.484,6.484,0,0,0,.878-.06l3.5-.47a15.792,15.792,0,0,0,10.74-6.43c.27-.38.53-.77.77-1.17a16.749,16.749,0,0,0,2.031-10.81Z" transform="translate(-364.561 -153.637)" fill="#2978b5"/>
      <path id="Path_65" data-name="Path 65" d="M523.359,228.275a6.431,6.431,0,0,0-2.33,1.92,6.548,6.548,0,0,0-1.29,4.87l4.55,33.54a6.577,6.577,0,0,0,5.3,5.57Z" transform="translate(-364.561 -153.638)" fill="#fff"/>
      <path id="Path_66" data-name="Path 66" d="M548.729,255.355l-1.97-14.56a15.71,15.71,0,0,0-5-9.56l4.53,33.37a6.177,6.177,0,0,0,.41,1.56,16.748,16.748,0,0,0,2.03-10.81Z" transform="translate(-364.561 -153.638)" fill="#3f3d56"/>
      <ellipse id="Ellipse_2" data-name="Ellipse 2" cx="2.5" cy="7" rx="2.5" ry="7" transform="translate(164.238 98.669) rotate(-7.726)" fill="#3f3d56"/>
      <ellipse id="Ellipse_3" data-name="Ellipse 3" cx="2.5" cy="7" rx="2.5" ry="7" transform="translate(161.238 80.669) rotate(-7.726)" fill="#3f3d56"/>
      <ellipse id="Ellipse_4" data-name="Ellipse 4" cx="2.5" cy="7" rx="2.5" ry="7" transform="translate(180.237 87.669) rotate(-7.726)" fill="#3f3d56"/>
      <path id="Path_67" data-name="Path 67" d="M460.249,190a82.384,82.384,0,0,0-16.35,1.59c-6.06,1.21-12.35,2.66-18.53,4.55-9.65-.47-16.75-2.97-18.18-6.82,11.25-6.5,24.98-10.69,40.71-12.73a97.132,97.132,0,0,1,19.75-.6,5.727,5.727,0,0,1,2.72,3.82C470.839,183.285,466.869,186.985,460.249,190Z" transform="translate(-364.561 -153.638)" fill="#3f3d56"/>
      <path id="Path_68" data-name="Path 68" d="M396.409,287.285l-7.7-32.01a6.024,6.024,0,0,0-4.88-4.55,6.727,6.727,0,0,0-1-.08,6.025,6.025,0,0,0-1.4.17l-2.98.72a14.9,14.9,0,0,0-10.99,17.96l3.45,14.36a15.845,15.845,0,0,0,5.34,8.62,14.043,14.043,0,0,0,1.36.97,14.809,14.809,0,0,0,11.37,1.84l2.97-.72a5.84,5.84,0,0,0,2.17-1.01,5.993,5.993,0,0,0,2.29-6.27Z" transform="translate(-364.561 -153.638)" fill="#2978b5"/>
      <ellipse id="Ellipse_5" data-name="Ellipse 5" cx="2.5" cy="7" rx="2.5" ry="7" transform="translate(10 114.667) rotate(-13.53)" fill="#3f3d56"/>
      <ellipse id="Ellipse_6" data-name="Ellipse 6" cx="2.5" cy="7" rx="2.5" ry="7" transform="translate(0 117.667) rotate(-13.53)" fill="#3f3d56"/>
      <path id="Path_70" data-name="Path 70" d="M369.2,263.155a6.477,6.477,0,0,0-1.17-2.45,14.725,14.725,0,0,0-.57,8.79l3.45,14.36a15.845,15.845,0,0,0,5.34,8.62Z" transform="translate(-364.561 -153.638)" fill="#3f3d56"/>
    </g>
  </g>
</svg>
